# xmcd CD database file
#
# Track frame offsets:
#	150
#	27294
#	46282
#	65341
#	84403
#	103889
#	129379
#	149701
#	171522
#	195220
#	213265
#	238972
#
# Disc length: 3463 seconds
#
# Revision: 0
# Processed by: cddbd v1.5.2PL0 Copyright (c) Steve Scherf et al.
# Submitted via: NeoAudio 9.9.9
#
DISCID=ad0d850c
DTITLE=Luis Centeno Y Su Orquesta Melaza - Rumba Callejera
DYEAR=2004
DGENRE=Salsa
TTITLE0=Rumba Callajera
TTITLE1=Al Rojo Vivo
TTITLE2=Yo Nací
TTITLE3=El Amor Que Yo Te Di
TTITLE4=A Luchar
TTITLE5=Alma Llanera
TTITLE6=Plante Bandera
TTITLE7=Huracan
TTITLE8=El Amor
TTITLE9=Entre Dos Aguas
TTITLE10=La Pinche Amargada
TTITLE11=Melaza De Cana
EXTD=YEAR: 2004
EXTT0=
EXTT1=
EXTT2=
EXTT3=
EXTT4=
EXTT5=
EXTT6=
EXTT7=
EXTT8=
EXTT9=
EXTT10=
EXTT11=
PLAYORDER=
